<?xml version="1.0" encoding="UTF-8" standalone="no"?>
<svg width="30px" height="30px" viewBox="0 0 30 30" version="1.1" xmlns="http://www.w3.org/2000/svg" xmlns:xlink="http://www.w3.org/1999/xlink">
    <!-- Generator: Sketch 40.3 (33839) - http://www.bohemiancoding.com/sketch -->
    <title>tc_icon</title>
    <desc>Created with Sketch.</desc>
    <defs></defs>
    <g id="Home" stroke="none" stroke-width="1" fill="none" fill-rule="evenodd">
        <g id="TrueSDK_StyleFrames-v.2" transform="translate(-2370.000000, -2555.000000)"></g>
        <g id="tc_icon" fill="#FFFFFF">
            <path d="M3.75,0 C1.6875,0 0,1.6875 0,3.75 L0,26.25 C0,28.3125 1.6875,30 3.75,30 L26.25,30 C28.3125,30 30,28.3125 30,26.25 L30,3.75 C30,1.6875 28.3125,0 26.25,0 L3.75,0 Z M5.5875,13.3125 L5.0625,13.3125 C4.8375,13.3125 4.7625,13.275 4.7625,13.0125 C4.7625,12.7125 4.7625,12.6 5.025,12.5625 L5.5875,12.5625 L5.5875,11.9625 C5.5875,11.7 5.625,11.625 5.775,11.4375 L6.3375,10.95 C6.4875,10.8375 6.5625,10.7625 6.6375,10.7625 C6.8625,10.7625 6.8625,11.1 6.8625,11.2125 L6.8625,12.5625 L7.8,12.5625 C7.9875,12.5625 8.1375,12.6 8.1375,12.8625 C8.1375,13.1625 8.1375,13.3125 7.8375,13.3125 L6.8625,13.3125 L6.8625,17.175 C6.9,17.6625 6.9,17.775 7.0125,17.9625 C7.125,18.225 7.35,18.3375 7.65,18.3375 L7.8,18.3375 L7.95,18.3375 C8.2125,18.3375 8.325,18.525 8.325,18.675 C8.325,19.2 7.275,19.2 7.2375,19.2 C6.675,19.2 6.1875,18.975 5.8875,18.6 C5.5875,18.15 5.5875,17.7 5.5875,17.3625 L5.5875,13.3125 Z M11.8875,13.5 C11.7375,13.3875 11.625,13.2375 11.2875,13.2375 C10.7625,13.2375 10.6875,13.575 10.6875,13.9875 L10.6875,18.75 C10.65,19.05 10.5,19.0875 10.35,19.0875 L9.7125,19.0875 C9.5625,19.0875 9.375,19.0875 9.375,18.75 L9.375,13.65 C9.375,13.2375 9.4125,13.0125 9.75,12.825 C10.0875,12.6375 10.875,12.4125 11.7,12.4125 C12.9,12.4125 13.0875,12.9 13.0875,13.2375 C13.0875,13.575 12.825,13.875 12.4875,13.875 C12.1875,13.875 12.075,13.725 11.8875,13.5 L11.8875,13.5 Z M21.1125,15.7125 C21.2625,17.3625 22.125,17.9625 22.875,17.9625 C23.5125,17.9625 24.0375,17.625 24.45,16.95 C24.6,16.6875 24.675,16.575 24.9,16.575 C25.0875,16.575 25.2375,16.6875 25.2375,16.95 C25.2375,17.25 24.75,19.2 22.725,19.2 C22.2375,19.2 21,19.05 20.3625,17.7375 C20.1,17.2125 19.95,16.575 19.95,15.825 C19.95,15 20.1,14.325 20.4,13.8 C20.5875,13.3875 21.2625,12.4125 22.725,12.4125 C24.75,12.4125 25.1625,14.2125 25.1625,14.6625 C25.1625,15.1125 24.8625,15.15 24.7125,15.1875 L21.1125,15.7125 Z M13.9875,12.8625 C13.9875,12.7125 14.025,12.5625 14.325,12.5625 L14.925,12.5625 C15.1125,12.5625 15.3,12.5625 15.3,12.9 L15.3,16.9125 C15.3,17.5125 15.3375,18.2625 16.5375,18.2625 C17.6625,18.2625 17.6625,17.625 17.6625,17.0625 L17.6625,12.9 C17.6625,12.825 17.6625,12.6 17.8875,12.5625 L18.6,12.5625 C18.8625,12.5625 18.975,12.6375 18.975,12.9 L18.975,17.4375 C18.975,18.0375 18.9375,18.45 18.4125,18.75 C18.15,18.9 17.475,19.2 16.35,19.2 C15.3375,19.2 14.8875,18.9375 14.5875,18.7125 C14.0625,18.2625 13.9875,17.7 13.9875,17.175 L13.9875,12.8625 Z M23.775,14.475 C23.6625,13.8 23.175,13.3125 22.575,13.3125 C21.6,13.3125 21.225,14.1375 21.1125,14.8875 L23.775,14.475 Z" id="ï²"></path>
        </g>
    </g>
</svg>